<svg height="426" viewBox="0 0 800 426" width="800" xmlns="http://www.w3.org/2000/svg" xmlns:xlink="http://www.w3.org/1999/xlink"><defs><path id="a" d="m0 0h800v426h-800z"/><mask id="b" fill="#fff"><use fill="#fff" fill-rule="evenodd" xlink:href="#a"/></mask></defs><g fill="none" fill-rule="evenodd"><use fill="#f7f9fa" xlink:href="#a"/><text fill="#b6bcc3" font-family="PingFangSC-Regular, PingFang SC" font-size="18" mask="url(#b)"><tspan x="344.5" y="309">图挂吊针了～</tspan></text><g fill="#eaeef0" fill-rule="nonzero"><path d="m367.612595 222.55235c1.276482-1.054237 3.144747-.964599 4.316105.218928l26.962026 27.228722h-40.020403c-5.801062 0-10.929354-2.905917-14.032443-7.353631l22.715444-20.043844zm42.691905-19.193774c1.261663-1.182587 3.232162-1.154398 4.45981.07733l18.012956 17.879181.052468.051303c.055171.052618.11202.102417.170266.149679v6.958057c0 9.553717-7.677248 17.298506-17.14774 17.298506h-.330374l-23.853439-24.089407 18.579204-18.270058zm-16.642638-42.094254c9.326524-1.654657 18.223849 4.631086 19.872667 14.039659l3.412229 19.471745-16.533961-11.480689-.118745-.081976c-3.933911-2.66956-9.27387-1.715777-12.049985 2.177637l-15.179821 21.289305-3.591705-2.540407-.1136-.079072c-3.759014-2.573885-8.856968-1.839165-11.744004 1.714519l-17.951627 22.505704c-.661679-1.390563-1.148575-2.893997-1.427726-4.486859l-5.970847-34.071406c-1.648809-9.408575 4.575277-18.377087 13.901799-20.031755zm-42.901089 19.753507c-3.78993 0-6.86301 3.096563-6.86301 6.915494s3.07308 6.915493 6.86301 6.915493 6.86301-3.096562 6.86301-6.915493-3.07308-6.915494-6.86301-6.915494z" mask="url(#b)"/><path d="m461.999139 111c2.434352 0 3.317106.254892 4.207069.733527.889963.478634 1.588411 1.181011 2.064368 2.075979l.095289.185577c.414424.839257.634135 1.765942.634135 4.045156v23.241741c0 6.113044-4.017611 11.287725-9.556422 13.02763l-.000564 3.049011c0 1.880142-1.38198 3.437506-3.185543 3.711695-3.204406 34.248416-13.525056 56.801577-31.016992 67.600061l-.542267.329623-.698212-1.179842c17.364777-10.392133 27.680839-32.635707 30.890864-66.792299-1.690332-.3652-2.956911-1.869307-2.956911-3.669238l-.000351-2.854018c-5.888383-1.515734-10.239277-6.861075-10.239277-13.222623v-23.241741c0-2.448044.253467-3.335764.729424-4.230733.475958-.894968 1.174406-1.597345 2.064368-2.075979l.184539-.095825c.803653-.40132 1.687925-.621067 3.776172-.636794zm.226833 1.373628h-13.757618l-.438835.0058c-1.529035.032556-2.204233.191928-2.897535.564796-.652037.350674-1.155596.857066-1.504309 1.51277-.40449.760584-.556323 1.499501-.567405 3.355136l-.000411 16.292421c4.065921-1.412933 8.325317-1.702974 12.77819-.870123 4.374067.818111 8.306329.577794 11.796785-.720952l-.000118-14.473237c0-2.024665-.147396-2.792238-.568065-3.583245-.348713-.655704-.852272-1.162096-1.504309-1.51277-.75633-.406765-1.491114-.559453-3.33637-.570596z" mask="url(#b)"/></g></g></svg>