<svg height="265" viewBox="0 0 1730 265" width="1730" xmlns="http://www.w3.org/2000/svg"><g fill-rule="evenodd" transform="matrix(1 0 0 -1 0 265)"><path d="m548.646409 20.5924925c-.658026-9.0842362-10.817815-18.38548038-4.727863-16.29515485 15.857874 5.44308451 19.577373 17.44252095 19.247739 27.11531525-.5741 16.8464275-21.554476 32.9985791-56.076116 25.5987441-16.469328-3.5302584-44.654258-23.2327814-53.092107-9.8191725-2.552153 4.0571447-1.607703 10.1221083 0 12.7530753.848903 1.3892098 1.888728 2.1715038 2.887014 2.9432066l-.217397-.1273666c2.639465 1.603445 6.148652 2.2488836 10.52756 1.9363159l.801289-.0734898c6.520123-.544634 21.709057-.6571479 45.566802-.3375416 4.259115.057056 8.493481.6581201 12.600226 1.788589l5.78475 1.5923756c7.206963 1.98387 13.98175 5.2917431 19.978293 9.7546481 5.709049 4.2489379 9.073401 10.9466984 9.073401 18.0633485l-.001 120.8936145 16.293893 16.293838c.390525.390524.390525 1.023689 0 1.414214-.187536.187536-.44189.292893-.707107.292893l-15.586786-.000945.001.005624h-11.282375c-.409417 0-.808971-.12565-1.144697-.359979l-14.969812-10.448584c-.535949-.37408-.855303-.986433-.855303-1.640021l-.000813-59.55704h-47.748l.001 51.064995c0 6.974318-3.231124 13.546333-8.73368 17.80549l-.339721.257859c-5.78152 4.302875-12.292292 7.522485-19.216585 9.505282l-.771052.215213-9.25234 2.515771c-.308469.083875-.638448.01522-.887865-.184728-.397766-.318873-.487398-.879664-.227132-1.302977l.07238-.102744 3.619988-4.515611c2.974967-3.711007 5.025932-8.072317 5.988006-12.724739l.110212-.559665 1.047569-5.5991c.187401-1.001632.297923-2.015827.330735-3.033715l.010356-.611105.087129-52.730226-16.838.000945v-2l16.841-.000945.007-4-16.848.000945v-2l16.851-.000945.145784-86.9206065c-1.966715-.9558357-3.996875-2.4383279-6.007212-4.6600429l-.289767-.3255444c-2.295654-2.6214854-4.312866-5.7855959-5.911043-9.4527054l-.277653-.6523503c-1.27388-3.0655479-5.807727-21.8307488 11.132555-28.7466832 6.430047-2.6250908 18.199552-2.7465153 34.82763 0 12.860738 2.1242509 33.055243 7.9373707 42.597305 9.1424551 9.542063 1.2050844 16.235836-3.0867937 15.57781-12.1710299zm-15.899409 135.7865075h-47.748v4h47.748zm-47.74725-87.5622711-.00075 85.5622711h47.748l.000813-60.2410247c0-1.7786601-.237268-3.5493725-.705526-5.2652881-3.354808-12.2935815-12.357425-18.7929059-27.00785-19.4979731-5.735655-.2760344-11.461488-.4521174-17.1775-.5282488z"/><path d="m1205.16122 64.6912197c1.51923 6.9108406 11.94431 10.8709695 20.78457 7.0824192l.82737-.3597285c4.38891-1.934079 10.51933-5.0257538 17.11497-8.6998662l1.28204-.7182369c2.98733-1.8001988 5.1318 4.8180231 9.62876 10.4164227l.61871 1.0604175c3.45003 5.8471093 5.81924 8.9936576.52349 12.0986583-7.04365 4.1298225-13.74387 6.6524719-19.94104 7.9169884l-.00033 50.3557328 9.31993.000384c1.10457 0 2 .89543 2 2 0 .376901-.1065.746132-.30723 1.065136l-11.0127 17.50048v47.94l86.73053-152.9920488c.32783-.5783075.9193-.9526986 1.57479-1.0068753l.16509-.0068057h5.52983c1.05436 0 1.91817.8158777 1.99451 1.8507376l.00549.1492624.0009 152.0285378c13.62229-.295783 23.90357 6.21321 27.63633 14.09851 4.14253 8.750939 2.45112 18.365085-4.87647 24.924443-4.78441 4.282815.14221-4.663279-2.09107-11.377458-2.23329-6.71418-13.01521-9.562897-21.41102-4.871042l-.78525.444242c-4.29698 2.459096-10.31054 6.338891-16.71066 10.863475l-.6011.426045c-2.78279 2.102598-5.60731-4.25521-10.66483-9.35288l-.73621-1.003488c-4.03671-5.445676-6.71331-8.325579-1.77522-11.96411 8.42741-6.209571 16.56957-9.732966 24.01506-11.26651l-.0007-99.771035-68.85958 122.169848c-3.42115 6.069714-9.48536 10.17704-16.37361 11.112275l-.41427.052298c-7.15838.835639-14.40668.368517-21.39469-1.376477l-.77536-.199146-9.27064-2.447449c-.30908-.081597-.56052-.306043-.67655-.603911-.18614-.477863.02016-1.011828.46261-1.246168l.10623-.048598 5.39281-2.100641c4.4319-1.726341 8.38874-4.477865 11.54813-8.025943l.37528-.429579 3.64411-4.25206c.08002-.093369.15916-.187454.23741-.282245l-.00188-61.341204-11.0711-17.59448c-.58826-.934893-.30725-2.169652.62764-2.75791.319-.200726.68823-.307226 1.06514-.307226l9.37832-.000384-.00058-49.3827697c-16.30993.5955218-27.94117-7.7838458-31.18338-17.025571-3.20511-9.1360126-.51802-18.5206913 7.45507-24.2781747l.32072-.2258219c4.6376-3.1735834-.91693 4.9973096.56963 11.75953z"/><path d="m1151.41421 97.7867966 19.79899 19.7989894c.78105.781049.78105 2.047379 0 2.828428l-19.79899 19.798989c-.78105.781049-2.04737.781049-2.82842 0l-19.79899-19.798989c-.78105-.781049-.78105-2.047379 0-2.828428l19.79899-19.7989894c.78105-.7810486 2.04737-.7810486 2.82842 0z"/><path d="m1652.07105 44.0737211.33966.1175629c4.50377 1.631378-3.94776 1.8574079-7.86258 6.2604596-3.94801 4.4403785-2.07883 13.4677106 4.77788 17.7990795l1.20884.7455628c1.74475 1.0445945 5.3501 2.8671757 11.11102 2.6448572 6.8155-.2630157 18.70759-12.5506147 19.82897-13.2242941.0647-.0435092.1365-.0803477.2139-.1086229.29472-.107662.62288-.070756.88632.0996781l42.51132 27.5029743c.56965.3685397.91362 1.0007467.91362 1.6792188v33.7009977c0 .40726-.12176.786199-.33093 1.102296-.04601.091982-.10721.176385-.18121.250385l-12.43503 12.435028c-.78105.781049-2.04738.781049-2.82843 0l-11.6995-11.6999h-9.319l18.55747 27.513066c5.36824 1.505146 9.70015 4.353847 12.41764 7.916925 5.87143 7.698429 6.21588 17.454146.41218 25.393657l-.23525.31388c-3.42992 4.451354-.6722-5.036071-4.17564-11.007954-3.58043-6.103133-14.71903-6.64791-21.95588-.312996-1.40813 1.23263-3.04983 2.756041-4.8518 4.503627l-8.58069-5.629026c-3.38338-2.244942-.79691-.594338-13.47514-8.673684l.00311-.004495-20.6682-13.160016c-.57663-.36717-.92578-1.003421-.92578-1.687025v-31.042913c0-.609862.27297-1.15597.70339-1.522811l12.24702-12.247208c.73994-.739941 1.91542-.778885 2.70121-.116833l.12722.116833 11.64614 11.646973h8.244l-15.2282-22.5754747c-11.44951 1.9115924-17.51506-1.6229045-21.43823-4.0963271l-.18234-.1151397c-17.32347-10.9531303-18.96402-29.0152437-13.05133-37.5760064 4.68924-6.7893682 12.54331-9.6081813 20.57425-6.942335zm34.72185 79.3052829h-13.065l.00077 34.926679c11.21053-7.753322 22.32498-9.658169 31.18218-8.066652zm11.207-8v-36.0690002l.15388-.0923604c-12.62665 7.6937462-22.31623 11.5648393-29.84818 13.177908l15.5043 22.9834526z"/><path d="m80 56.7936167c33.270074 0 61.547018 21.3781307 71.843391 51.1469513l.064753.204263c.856772 3.035351-8.108081-8.5534956-23.905761-16.839738l-.002383 48.488524h9.349127c1.104569 0 2 .89543 2 2 0 .376901-.1065.746132-.307226 1.065136l-11.041901 17.546864.000907 45.671353c21.54499 3.469289 30.844142 18.352348 31.059756 29.358169l.003844.391007c0 8.612163-6.270262 20.568898-19.900582 24.075028-4.513555 1.161023.515391-4.198009 4.46128-12.507557 3.169875-6.67536-2.504396-17.856487-13.075209-16.430792-25.373392 3.42213-50.1408397 18.041613-77.7201548 18.041613-29.9481095 0-50.30466669-21.230674-40.7000702-46.341708 9.6045965-25.111034-1.8317239 19.130887 25.2302289 19.130887 13.5327282 0 47.0904503-15.137146 78.0000001-16.4 1.594975-.065165 3.141717-.077126 4.640956-.039418l-.000956-44.946582-11.041901-17.548864c-.588259-.934893-.307256-2.169652.627638-2.75791.319004-.200726.688235-.307226 1.065136-.307226h9.349127l.00081-52.1032979c-16.804516-6.381513-39.2233716-7.3431459-64.7775747 11.9840828l-1.7506472 1.3521281c-2.5150276 1.982896-4.8038347 3.990248-6.8819606 6.01597l46.1786033 19.238296c.7452938.310539 1.2307692 1.038752 1.2307692 1.846154v65.666667c0 1.104569-.8954305 2-2 2-.264052 0-.5254904-.052288-.7692308-.153846l-57.7727057-24.070604c7.5768251 19.559815 20.7082802 32.896704 16.1292549 30.895044-26.8349792-11.730556-45.5873184-38.510653-45.5873184-69.670594 0-41.9736413 34.026359-76.0000003 76-76.0000003zm-38.8127417 56.1126653c-13.5702427 16.514007-14.4998828 33.837483-10.8493967 48.812211l32.8834048 13.900477c.2464094.104164.5112121.157835.7787336.157835 1.0543618 0 1.9181651-.815878 1.9945143-1.850738l.0054857-.149262v-49.057285c0-.750076-.4190354-1.432157-1.0767419-1.774179l-.1445245-.067987z"/><path d="m264 158.793617c0 1.104569-.895431 2-2 2l-9.63199-.000399-20.200395 14.047574c-.680846.47344-1.583236.477606-2.268425.010472l-26.18018-17.848046.00099 92.641957c0 1.10457-.895431 2-2 2-.477423 0-.939097-.170784-1.301583-.481486l-24-20.571429c-.443292-.379964-.698417-.934663-.698417-1.518513l-.00099-147.6535286-7.212213-7.2123881c-.781049-.7810486-.781049-2.0473786 0-2.8284271l19.798989-19.7989899c.781049-.7810486 2.047379-.7810486 2.828428 0l19.798989 19.7989899c.781049.7810485.781049 2.0473785 0 2.8284271l-7.214193 7.2133881v63.1609996l.004571.093977c.050739.59463.365304 1.139087.86232 1.479622l18.485171 12.665252c.865646.593104 2.032352.412867 2.682135-.387885l.116477-.158746 10.564157-16.556247c.205037-.321346.313972-.694595.313972-1.075783v-78.5584324c0-1.2339301-.114194-2.4652127-.341119-3.678097l-1.044483-5.582606c-.90953-4.8612979-3.010283-9.4212105-6.114208-13.2715493l-3.530817-4.3798872c-.346618-.4299704-.279047-1.0595195.150923-1.4061373.248002-.1999249.576417-.2697323.884295-.1879641l9.552975 2.5371392c6.958365 1.8480464 13.465373 5.0993693 19.12122 9.5542006 5.41369 4.2640961 8.573401 10.7749882 8.573401 17.666327z"/><path d="m334 56.9357524 16.970563 16.9705627c.054912.0549127.105964.1122241.153156.171597l9.534836 9.5368236c.390524.3905243.390524 1.0236892 0 1.4142135-.187537.1875364-.44189.2928932-.707107.2928932l-17.56837-.0008765-18.384 18.3840001v3.114l28.45902 19.927613c.200354.059734.394677.15212.575372.278496l21.297953 14.912988c.904811.633555 1.124707 1.880646.491152 2.785457l-26.390082 37.688942c-.631377.9017-1.872716 1.123695-2.777476.49671l-21.655939-15.007206.000922.004349-26.540507-7.449878c-.863049-.242257-1.459493-1.029174-1.459493-1.925579v-59.4824073l-12.435029-12.4350288c-.390524-.3905243-.390524-1.0236893 0-1.4142136.187537-.1875364.44189-.2928932.707107-.2928932l18.928-.0003492 27.971495-27.9702135c.781048-.7810486 2.047378-.7810486 2.828427 0zm-10.000922 59.6502136v41.187l3.387 2.371 19.359-27.631z"/><path d="m631.727922 56.9357524 16.970563 16.9705627c.054912.0549127.105964.1122241.153156.171597l9.534836 9.5368236c.390524.3905243.390524 1.0236892 0 1.4142135-.187536.1875364-.44189.2928932-.707107.2928932l-17.56837-.0008765-18.384 18.3840001v3.114l28.45902 19.927613c.200354.059734.394677.15212.575372.278496l21.297953 14.912988c.904811.633555 1.124707 1.880646.491152 2.785457l-26.390081 37.688942c-.631378.9017-1.872717 1.123695-2.777477.49671l-21.655939-15.007206.000922.004349-26.540507-7.449878c-.863049-.242257-1.459493-1.029174-1.459493-1.925579v-59.4824073l-12.435029-12.4350288c-.390524-.3905243-.390524-1.0236893 0-1.4142136.187537-.1875364.441891-.2928932.707107-.2928932l18.928-.0003492 27.971495-27.9702135c.781049-.7810486 2.047378-.7810486 2.828427 0zm-10.000922 59.6502136v41.187l3.387 2.371 19.359-27.631z"/><path d="m1413.72792 57.050215 16.97056 16.9705628c.05492.0549127.10597.1122241.15316.171597l9.53484 9.5368236c.39052.3905242.39052 1.0236892 0 1.4142135-.18754.1875364-.44189.2928932-.70711.2928932l-17.56837-.0008765-18.384 18.3840004v3.114l28.45902 19.927613c.20035.059733.39468.152119.57537.278496l21.29796 14.912988c.90481.633555 1.1247 1.880646.49115 2.785456l-26.39008 37.688942c-.63138.901701-1.87272 1.123696-2.77748.496711l-21.65594-15.007206.00092.004349-26.5405-7.449879c-.86305-.242256-1.4595-1.029173-1.4595-1.925578v-59.4824076l-12.43503-12.4350288c-.39052-.3905243-.39052-1.0236893 0-1.4142136.18754-.1875364.44189-.2928932.70711-.2928932l18.928-.0003492 27.97149-27.9702136c.78105-.7810485 2.04738-.7810485 2.82843 0zm-10.00092 59.650214v41.187l3.387 2.371 19.359-27.631z"/><path d="m1469.87094 181.460891c-.30788.081768-.6363.011961-.8843-.187964-.39689-.319955-.485-.880987-.22358-1.30359l.07266-.102547 3.53081-4.379887c2.98455-3.702249 5.0416-8.060539 6.00399-12.711992l.11022-.559558 1.04449-5.582606c.1891-1.010737.29992-2.03425.33161-3.061425l.0095-.616672v-63.5584324c0-.3176563-.07564-.6297996-.21952-.910988l-.09445-.164795-9.13057-14.3099504c-.27807-.4358076-.37659-.962359-.27489-1.4692211.20741-1.0337594 1.17727-1.7201853 2.20693-1.5914659l.14743.0239842 13.92605 2.7946261 24.44461-16.9987915c.68084-.4734399 1.58323-.4776057 2.26842-.010472l27.75397 18.9222635 24.97761-17.3696537c.68084-.4734399 1.58323-.4776057 2.26842-.010472l32.0258 21.8339016c.05961.0406368.1166.0842011.17084.1304291l16.63354 11.3543132c.21838.1490491.34901.3963687.34901.6607641l.00078 60.8657172 5.79821 5.798309c.78105.781048.78105 2.047378 0 2.828427l-18.38477 18.384776c-.78105.781049-2.04738.781049-2.82843 0l-18.38478-18.384776c-.78105-.781049-.78105-2.047379 0-2.828427l5.79977-5.798309v-68.9809995l-14.35185-9.8339305c-.86565-.5931042-2.03235-.4128671-2.68214.3878854l-.11647.1587453-9.84954 15.4372998v61.4359995l5.96978 5.969167c.78105.781049.78105 2.047378 0 2.828427l-18.38477 18.384776c-.78105.781049-2.04738.781049-2.82843 0l-18.38477-18.384776c-.78105-.781049-.78105-2.047378 0-2.828427l5.62819-5.627167v-69.4709995l-14.52274-9.9501536c-.86465-.5924221-2.03999-.4168208-2.69373.4024545l-8.98453 11.2606991-.00079 66.9707955c0 6.974317-3.23112 13.546332-8.73368 17.80549l-.33972.257858c-5.78726 4.307148-12.31619 7.510771-19.25945 9.452865l-.74549.203247z"/><path d="m848.247596 56.3306971c.307878-.0817681.636293-.0119608.884295.1879642.396896.3199548.485001.8809873.223583 1.3035901l-.07266.1025472-3.530817 4.3798871c-2.984543 3.7022489-5.041598 8.0605386-6.003986 12.7119911l-.110222.5595583-1.044483 5.582606c-.189104 1.0107369-.299923 2.0342503-.331609 3.0614254l-.00951.6166716v63.5584329c0 .317656.075649.629799.219522.910988l.09445.164795 9.130572 14.30995c.27807.435808.376588.962359.274892 1.469221-.207413 1.03376-1.177275 1.720185-2.206933 1.591466l-.147425-.023984-13.926051-2.794626-24.444609 16.998791c-.680846.47344-1.583237.477606-2.268425.010472l-27.753966-18.922263-24.977609 17.369653c-.680846.47344-1.583237.477606-2.268425.010472l-24.964966-17.020125-22.934224 17.202478c-.113155.084866-.241475.135222-.372351.15287-.413518.132499-.884726.034193-1.213032-.294112l-11.5865-11.586501c-.390525-.390524-.390525-1.023689 0-1.414214.187536-.187536.44189-.292893.707107-.292893l11.184-.000628v-81.5920002l-5.798214-5.7983082c-.781049-.7810485-.781049-2.0473785 0-2.8284271l18.384776-18.3847763c.781049-.7810486 2.047379-.7810486 2.828427 0l18.384777 18.3847763c.781048.7810486.781048 2.0473786 0 2.8284271l-5.799766 5.7983082v68.9810002l14.351847 9.83393c.865647.593105 2.032353.412867 2.682136-.387885l.134324-.186218 9.831693-15.409827v-61.4360002l-5.969787-5.9691664c-.781048-.7810486-.781048-2.0473786 0-2.8284272l18.384776-18.3847763c.781049-.7810486 2.047379-.7810486 2.828428 0l18.384776 18.3847763c.781048.7810486.781048 2.0473786 0 2.8284272l-5.628193 5.6271664v69.4710002l14.522736 9.950153c.864651.592422 2.039996.416821 2.693734-.402454l8.98453-11.260699.000786-66.9707955c0-6.9743171 3.231124-13.5463326 8.73368-17.8054899l.339721-.2578586c5.787261-4.3071476 12.316193-7.5107709 19.259449-9.4528643l.74549-.2032469z"/><path d="m1037.72764 56.8959975.04636.0450897 42.31238 27.3741564c.56965.3685398.91362 1.0007467.91362 1.6792188v63.2433466l12.43503 12.435029c.18754.187536.29289.44189.29289.707107 0 .512836-.38604.935507-.88338.993272l-.11662.006728-12.71592-.000858-15.195.077-14.89985 17.619504c-.66525.786656-1.81925.939249-2.66611.352539l-19.99504-13.853043-26.6023-16.938833c-.57662-.36717-.925778-1.003422-.925778-1.687026v-49.9007773l-12.435029-12.4350288c-.390524-.3905243-.390524-1.0236893 0-1.4142136.187537-.1875364.441891-.2928932.707107-.2928932l18.928-.0002279 27.99137-27.9902133c.77325-.7732421 2.02416-.7820959 2.80827-.0198764zm15.27136 20.7680897-25.272 25.8149998v54.69l25.272-29.789z"/><path d="m949.76156 59.5760528.142346.1271794 16.95753 16.9574125c.050243.0502429.097253.1024939.141032.1564946l9.446286 9.4475517c.390524.3905243.390524 1.0236893 0 1.4142136-.187537.1875363-.441891.2928932-.707107.2928932l-17.363569-.0005577-4.379 4.379.000922 56.8875689 12.435029 12.435029c.187536.187536.292893.44189.292893.707107 0 .512836-.38604.935507-.883379.993272l-.116621.006728-12.722844-.000705-15.31.077-9.781579 11.479222-.852332 1.078023c-2.041811 2.548456-3.653406 4.196891-5.240497 3.145566l-1.364572-.964809c-6.155483-4.328028-11.909228-8.030549-16.062823-10.408432l-1.505521-.724839c-1.364853-.646401-2.307732-1.057501-2.828884-1.23342-7.637859-2.337508-15.945584.577984-17.874701 6.377709-2.233284 6.71418 2.693341 15.660273-2.091077 11.377458-7.327588-6.559358-9.766859-18.227593-5.837735-27.072569 5.621207-12.654079 23.833828-19.715629 46.363599-10.862939l5.380122-6.59697.001106-6.283638-.963032.10956c-6.803888.725659-14.903435.54818-23.016926-2.845187l-.562282-.240342-.723369-.318439c-11.872597-5.269792-26.456944-13.950086-27.734575-33.1842424-.264128-3.9763337.249171-7.8004094 1.400166-11.3652578l-11.835195-11.8356422c-.390524-.3905243-.390524-1.0236893 0-1.4142136.187537-.1875364.44189-.2928932.707107-.2928932l19.728972-.0010378c6.462012-6.180553 15.404863-9.9989622 24.926259-9.9989622 6.591423 0 12.756392 1.8248575 18.016721 4.9966508.04769.0211493.094203.0467713.13879.0762437l.168071.1109421c.621752.3836737 1.230562.7862891 1.825624 1.2070408l6.866563 4.5384179 12.11984-12.567269c.726367-.7532698 1.900949-.8135765 2.698642-.1659183zm-23.761608 18.2912277c-6.327331-1.384877-14.064288-.4891832-22.014406 7.0390346-12.536435 11.8711445-6.381188 31.5066279-2.527602 36.2400509 5.847264 8.492836 17.792831 9.348345 24.542307 8.78625z"/></g></svg>